<?xml version="1.0" encoding="UTF-8"?><svg xmlns="http://www.w3.org/2000/svg" viewBox="0 0 371.21 371.27"><g id="a"/><g id="b"><g id="c"><path d="M77.85,353.51v11.49h-11.9V209.87h-12.13v4.24c0,46.53,0,93.06-.01,139.59,0,1.86,.03,3.77-.35,5.58-1.61,7.65-8.64,12.73-16.22,11.9-7.77-.85-13.34-7.19-13.34-15.46-.03-42.91-.02-85.83-.02-128.74,0-5.61,0-11.22,0-17.16-5.34-.96-6.07-4.71-6.05-9.42,.12-35.3,.06-70.61,.06-105.91v-4.38c-2.56-.88-5.02-1.45-7.22-2.54C4.45,84.46,.52,79.44,.05,72.39c-.47-7.07,2.7-12.47,8.71-16.26C36.28,38.8,63.79,21.44,91.29,4.06c8.88-5.61,17.57-5.35,26.24,.46,25.69,17.2,51.38,34.4,77.11,51.54,6.41,4.27,9.86,10.1,8.6,17.73-1.34,8.12-6.59,13.17-14.56,15.31-.72,.19-1.46,.34-2.18,.54-.23,.06-.44,.22-.75,.37v11.77h4.56c49.53,0,99.05,0,148.58,0,19.77,0,32.31,12.48,32.31,32.18,0,76.22,0,152.44,0,228.66,0,6.87-1.83,8.69-8.6,8.59-57.71-.86-107.76-44.98-115.73-102.22-1.15-8.25-.93-16.71-2.26-24.92-2.11-13.09-9.52-22.79-21.05-29.32-.5-.28-1.07-.45-2.07-.87v3.65c0,20.21,.04,40.42-.06,60.63-.01,2.43,.57,3.65,2.98,4.63,6.58,2.67,10.18,9.78,8.76,16.44-1.51,7.1-7.31,12.03-14.64,12.1-11.48,.11-22.95,.03-34.43,.03-1.35,0-2.71,0-4.54,0v4.2c0,13.1,.02,26.2,0,39.3-.02,9.7-6.29,16.45-15.12,16.37-8.67-.08-14.8-6.79-14.81-16.31-.01-46.78,0-93.56,0-140.34,0-1.49,0-2.98,0-4.74h-11.98v155.23h-11.84v-11.56h-47.96Zm-24.03-156.09c0-1.65,0-3.01,0-4.36,0-14.22-.08-28.43,.05-42.65,.03-3.71,.35-7.5,1.17-11.11,5.4-23.72,27.54-39.83,51.08-37.37,24.92,2.61,43.36,22.9,43.49,47.94,.07,14.46,.01,28.93,.01,43.39,0,1.33,0,2.66,0,4.07h23.68V90.1H30.07v107.32h23.76ZM323.42,113.81c-.05,1.12-.12,1.85-.12,2.58,0,54.11,0,108.23-.06,162.34,0,2.26,.75,3.15,2.8,3.98,5.84,2.37,9.38,8.11,9.14,14.15-.24,6.1-4.16,11.4-10.06,13.6-.82,.31-1.63,.63-2.91,1.13,11.64,7.23,23.64,10.96,36.61,11.5,.19-.58,.33-.81,.33-1.04,.01-63.84,.08-127.67-.05-191.51-.02-8.75-7.51-16.17-16.25-16.66-6.33-.36-12.69-.07-19.44-.07ZM101.88,77.82c26.57,0,53.14,0,79.71,0,1.37,0,3.08,.39,4.03-.26,2.13-1.47,4.67-3.18,5.51-5.38,.53-1.4-1.17-4.62-2.77-5.7-26-17.62-52.15-35.03-78.26-52.49-3.95-2.64-7.86-2.69-11.89-.15C70.61,31.27,42.96,48.65,15.43,66.21c-1.62,1.04-3.46,3.65-3.22,5.22,.33,2.06,2.35,4.17,4.17,5.57,1.19,.91,3.32,.79,5.03,.8,26.82,.04,53.64,.03,80.46,.03Zm167.96,36.11c-.22,.38-.33,.48-.33,.58-.04,26.56-.08,53.12-.06,79.68,0,1.03,.45,2.21,1.07,3.05,11.72,16.08,16.96,34.12,16.97,53.95,0,9.69,2.45,19,6.56,27.8,.42,.91,1.29,2.26,1.99,2.28,5.04,.2,10.1,.11,15.1,.11V113.93h-41.3Zm89.23,221.84c-6.3-1.09-12.28-1.73-18.05-3.2-38.57-9.8-64.88-43.69-65.68-83.56-.65-32.05-15.8-55.15-44.7-69.01-14.25-6.83-29.52-6.97-44.87-6.15v23.72c5.51,0,10.84,0,16.17,0,31.72,.04,54.62,23.1,55.61,54.75,1.4,44.31,22.42,76.58,61.92,96.62,12.31,6.24,25.59,9.33,39.6,10.06v-23.24ZM137.6,197.41c0-16.91,.21-33.38-.14-49.84-.09-4.23-1.37-8.67-3.07-12.6-6.75-15.56-23.63-23.92-40.37-20.4-15.92,3.35-27.94,17.81-28.15,34.32-.2,15.47-.06,30.94-.05,46.41,0,.7,.19,1.4,.28,2.1h71.5Zm71.78,83.85v-71.29h-29.6v71.29h29.6Zm12.29-116.92c13.17,3.37,24.81,9.53,35.55,18.44V113.99h-35.55v50.35Zm-12.41-2.7v-47.6h-23.5v47.6h23.5ZM35.86,209.73v2.85c0,47.23,0,94.46,0,141.68,0,.37,.01,.75,0,1.12-.07,2.17,.7,3.83,3.08,3.76,2.39-.06,3-1.83,2.91-3.94-.03-.62,0-1.25,0-1.87,0-46.48,0-92.96,0-139.44v-4.17h-5.99Zm125.75,0v3.06c0,47.15,0,94.31,0,141.46,0,.75-.26,1.72,.11,2.2,.83,1.06,1.89,2.42,3.01,2.58,.8,.11,2.09-1.38,2.71-2.43,.44-.75,.15-1.95,.15-2.94,0-46.78,0-93.56,0-140.34v-3.59h-5.99Zm-83.67,11.54h47.43v-11.51h-47.43v11.51Zm.01,24.02h47.48v-11.51h-47.48v11.51Zm47.55,12.43h-47.43v11.53h47.43v-11.53Zm0,23.95h-47.43v11.53h47.43v-11.53Zm-.07,35.49v-11.52h-47.48v11.52h47.48Zm-47.49,23.88h47.43v-11.52h-47.43v11.52Zm101.78-41.66c12.72,0,25.02-.02,37.31,.01,2.16,0,4.26-.24,4.33-2.88,.07-2.91-2.15-3.14-4.45-3.13-11.68,.03-23.36,0-35.05,.03-.71,0-1.41,.17-2.15,.27v5.7Zm123.81-5.98l-.81,1.26c2.24,1.57,4.29,3.91,6.77,4.53,3.16,.79,6.66,.17,10.01,.2,2.18,.02,4.01-.89,3.55-3.13-.24-1.15-2.24-2.66-3.51-2.73-5.32-.31-10.67-.13-16.01-.13Z"/></g></g></svg>