<svg id="Layer_1" enable-background="new 0 0 512 512" height="512" viewBox="0 0 512 512" width="512" xmlns="http://www.w3.org/2000/svg"><g><path d="m126.282 406.085c9.652 0 9.668-15 0-15-9.651 0-9.667 15 0 15z"/><path d="m256.002 406.085c9.652 0 9.668-15 0-15-9.651 0-9.668 15 0 15z"/><path d="m385.722 406.085c9.652 0 9.668-15 0-15-9.652 0-9.668 15 0 15z"/><path d="m159.533 264.655c9.652 0 9.668-15 0-15-9.652 0-9.668 15 0 15z"/><path d="m256.002 264.655c9.652 0 9.668-15 0-15-9.651 0-9.668 15 0 15z"/><path d="m352.472 264.655c9.652 0 9.668-15 0-15-9.652 0-9.668 15 0 15z"/><path d="m353.659 82.946c3.797 0 7.518-3.824 7.501-7.533l-.053-11.853c-.042-9.417-15.044-9.818-15 .066l.053 11.853c.019 4.131 3.372 7.467 7.499 7.467z"/><path d="m322.232 92.012c6.886 6.812 17.448-3.836 10.551-10.662l-8.432-8.344c-6.893-6.82-17.443 3.841-10.551 10.662z"/><path d="m305.101 120.64h.034l11.871-.053c9.472-.042 9.199-15-.066-15l-11.871.053c-9.679.043-9.642 15 .032 15z"/><path d="m322.902 133.913-8.357 8.418c-6.83 6.878 3.807 17.456 10.645 10.568l8.357-8.418c6.833-6.88-3.814-17.452-10.645-10.568z"/><path d="m375.493 133.206c-2.913 2.944-2.889 7.692.056 10.606l8.432 8.344c6.886 6.812 17.448-3.836 10.551-10.662-3.645-4.841-12.787-14.605-19.039-8.288z"/><path d="m383.86 112.108c.017 3.718 3.745 7.467 7.533 7.467l11.871-.053c9.472-.042 9.199-15-.066-15l-11.871.053c-4.142.019-7.485 3.392-7.467 7.533z"/><path d="m380.108 93.465c1.929 0 3.856-.739 5.322-2.216l8.356-8.418c6.832-6.882-3.814-17.451-10.645-10.568l-8.356 8.418c-4.427 4.461-.958 12.784 5.323 12.784z"/><path d="m157.326 30.092c3.797 0 7.518-3.824 7.501-7.533l-.053-11.853c-.042-9.417-15.044-9.818-15 .066l.053 11.853c.019 4.131 3.372 7.467 7.499 7.467z"/><path d="m125.9 39.157c6.886 6.812 17.448-3.836 10.551-10.662l-8.432-8.344c-6.892-6.821-17.443 3.841-10.551 10.662z"/><path d="m108.768 67.785h.034l11.871-.053c9.472-.042 9.199-15-.066-15l-11.871.053c-9.679.044-9.642 15 .032 15z"/><path d="m126.569 81.059-8.356 8.418c-6.829 6.879 3.807 17.456 10.645 10.568l8.356-8.418c6.832-6.882-3.814-17.451-10.645-10.568z"/><path d="m179.161 80.353c-2.914 2.944-2.889 7.693.056 10.606l8.432 8.343c6.884 6.815 17.449-3.837 10.551-10.662l-8.432-8.343c-2.945-2.915-7.693-2.889-10.607.056z"/><path d="m187.527 59.254c.019 4.131 3.372 7.467 7.499 7.467h.034l11.871-.053c9.472-.042 9.199-15-.066-15l-11.871.053c-4.142.018-7.485 3.391-7.467 7.533z"/><path d="m183.775 40.61c1.928 0 3.856-.739 5.322-2.216l8.357-8.418c6.833-6.881-3.815-17.453-10.645-10.568l-8.357 8.418c-4.429 4.461-.957 12.784 5.323 12.784z"/><path d="m504.5 463.038h-46.593v-82.226c0-27.352-22.16-49.619-49.469-49.809v-84.007c0-26.446-20.717-48.136-46.772-49.716v-89.231c0-4.143-3.357-7.5-7.5-7.5s-7.5 3.357-7.5 7.5v89.129h-55.773v-84.08c0-4.143-3.357-7.5-7.5-7.5h-20.014v-26.674c29.859-8.193 19.263-38.123 9.461-56.84-5.154-9.844-10.229-18.15-10.443-18.499-4.264-4.78-8.529-4.78-12.793 0-.214.349-5.289 8.655-10.443 18.499-9.781 18.676-20.519 48.319 9.219 56.771v26.743h-19.771c-4.143 0-7.5 3.357-7.5 7.5v84.08h-55.773v-141.984c0-9.697-15-9.697-15 0v142.086c-26.056 1.581-46.772 23.27-46.772 49.716v84.007c-27.309.19-49.469 22.457-49.469 49.809v82.226h-46.595c-4.143 0-7.5 3.357-7.5 7.5 0 22.862 18.6 41.462 41.462 41.462h429.076c22.862 0 41.462-18.6 41.462-41.462 0-4.142-3.357-7.5-7.5-7.5zm-261.393-410.976c0-9.61 8.496-21.721 12.905-29.675 4.254 7.649 14.531 22.39 12.382 31.933-3.196 14.195-25.287 14.114-25.287-2.258zm-7 99.35h39.785v14.951h-39.785zm39.786-30.814v15.814h-39.785v-15.814zm-39.786 60.765h39.785v15.814h-39.785zm-82.727 30.815h205.24c17.548 0 32.097 13.051 34.471 29.954-11.282 3.265-17.623 13.56-22.891 22.126-6.115 9.942-10.243 16.036-17.73 16.036-7.488 0-11.616-6.094-17.731-16.037-6.352-10.326-14.256-23.178-30.508-23.178-16.251 0-24.155 12.852-30.507 23.179-6.115 9.942-10.242 16.036-17.729 16.036-7.486 0-11.614-6.094-17.729-16.036-6.351-10.327-14.255-23.179-30.506-23.179-6.812 0-12.955 2.373-18.26 7.054-7.271 6.416 2.652 17.664 9.924 11.248 2.588-2.283 5.159-3.302 8.336-3.302 7.486 0 11.614 6.094 17.729 16.036 6.351 10.327 14.255 23.179 30.506 23.179s24.155-12.852 30.507-23.179c6.115-9.942 10.242-16.036 17.729-16.036s11.615 6.094 17.73 16.036c6.352 10.327 14.257 23.179 30.509 23.179s24.156-12.852 30.508-23.179c3.828-6.224 6.878-10.939 10.461-13.596v72.475h-274.877v-72.474c3.582 2.657 6.631 7.372 10.459 13.596 6.351 10.327 14.255 23.179 30.506 23.179 7.957 0 14.73-3.085 20.708-9.433 6.649-7.059-4.272-17.344-10.92-10.284-3.113 3.307-6.041 4.717-9.788 4.717-7.486 0-11.614-6.094-17.729-16.036-5.267-8.565-11.609-18.86-22.889-22.126 2.373-16.905 16.923-29.955 34.471-29.955zm-49.468 133.816h7.149 289.877 7.149c17.047 0 31.262 12.317 34.237 28.517-15.063 3.571-23.313 16.963-30.71 28.989-8.714 14.168-14.813 22.771-26.014 22.771-7.473 0-12.952-1.532-26.015-22.771-8.624-14.021-18.398-29.912-38.792-29.912-20.393 0-30.167 15.892-38.79 29.913-8.714 14.168-14.813 22.771-26.013 22.771-7.472 0-12.95-1.532-26.012-22.771-8.623-14.021-18.396-29.913-38.789-29.913s-30.165 15.892-38.788 29.913c-8.713 14.168-14.812 22.771-26.01 22.771-7.472 0-12.95-1.532-26.012-22.771-7.396-12.026-15.645-25.418-30.707-28.989 2.978-16.201 17.193-28.518 34.24-28.518zm366.626 151.006h-429.076c-11.987 0-22.139-8.012-25.38-18.962h350.411c9.697 0 9.697-15 0-15h-297.4v-73.116c4.718 2.136 10.007 7.608 18.512 21.436 8.623 14.021 18.396 29.913 38.789 29.913 20.392 0 30.164-15.892 38.787-29.913 8.713-14.168 14.812-22.771 26.011-22.771 7.472 0 12.95 1.532 26.012 22.771 8.623 14.021 18.396 29.913 38.789 29.913s30.167-15.892 38.79-29.913c8.714-14.168 14.813-22.771 26.013-22.771 7.473 0 12.952 1.532 26.015 22.771 8.624 14.021 18.398 29.912 38.792 29.912s30.167-15.892 38.791-29.912c6.556-10.659 11.633-18.165 18.515-21.231v72.911h-38.43c-9.697 0-9.697 15 0 15h91.44c-3.242 10.95-13.394 18.962-25.381 18.962z"/></g></svg>