<?xml version="1.0" encoding="UTF-8"?><svg xmlns="http://www.w3.org/2000/svg" viewBox="0 0 417.56 509.94"><g id="a"/><g id="b"><g id="c"><path d="M323.74,509.94c-9.94-2.1-18.84-6.13-23.13-15.95-2.13-4.87-3.33-10.46-3.54-15.78-.5-12.6-.06-25.23-.27-37.84-.03-1.8-1.05-4.29-2.44-5.25-24.03-16.59-48.18-33-72.32-49.43-.63-.43-1.37-.69-2.81-1.41,0,7.08,.21,13.49-.05,19.89-.5,12.31-6.66,21.17-17.86,25.87-11.07,4.64-21.55,2.58-30.55-5.42-6.71-5.97-9.54-13.72-9.5-22.66,.07-17.76-.06-35.53,.09-53.29,.03-3.19-.87-5.16-3.58-6.9-7.34-4.71-14.48-9.72-22.55-15.19,0,2.82,0,4.59,0,6.35,0,35.03,.04,70.06-.02,105.09-.02,14.74-7.27,25.83-19.38,30.02-19.12,6.62-37.94-6.37-38.76-27.51-.67-17.24-.26-34.53-.1-51.79,.06-6.91,4.31-11.33,10.07-11.28,5.88,.05,9.71,4.38,9.76,11.44,.09,14.61,.03,29.22,.03,43.83,0,1.66-.01,3.32,0,4.98,.09,7.71,3.67,12.31,9.44,12.14,5.64-.16,9.01-4.56,9.01-12.06,.03-41.67,.01-83.34,.02-125.01,0-1.66-.05-3.32,.05-4.98,.5-8.63,8.23-12.8,15.61-8.18,6.46,4.05,12.66,8.52,18.97,12.81,8.23,5.6,16.37,11.34,24.72,16.75,4.66,3.02,6.66,6.91,6.61,12.44-.15,19.59-.08,39.18-.02,58.77,0,2.12,.07,4.42,.84,6.34,1.67,4.16,5.06,6.04,9.56,5.47,4.4-.56,7.53-4.07,7.61-9.05,.17-10.79,.09-21.58,.08-32.37,0-5.5-.58-11.26,5.41-14.42,5.96-3.15,10.43,.44,14.96,3.6,2.83,1.97,5.7,3.88,8.8,5.99,5.85-9.84,13.27-17.36,23.11-22.57,32.94-17.44,74.71,4.94,78.3,42.04,1.42,14.72-2.33,27.89-11.31,39.63-.94,1.23-1.91,2.88-1.92,4.33-.06,16.6,0,33.2,.17,49.79,.07,6.27,3.8,10.38,9.03,10.49,5.08,.1,8.96-3.74,9.19-9.7,.25-6.63,.14-13.28,.09-19.92-.04-4.75,.91-9,5.58-11.33,4.42-2.2,8.28-.67,12.06,1.93,13.8,9.5,27.67,18.91,41.52,28.34,.78,.53,1.64,.97,3.17,1.87,0-13.1,.08-25.47-.13-37.84-.02-1.12-1.66-2.68-2.91-3.25-21.81-10.03-33.41-27.09-33.12-50.98,.28-23.12,12.28-39.24,33.08-49.06,1.38-.65,2.96-2.74,2.96-4.17,.12-81.84,.09-163.69,.06-245.53,0-.31-.15-.63-.5-1.99-12.88,.9-25.95,1.82-39.8,2.79,9.45,19.82,9.38,38.61-2.12,56.57-8.29,12.96-20.41,20.91-35.48,23.54-31.1,5.44-62.74-16.09-64.05-53.81-74.52,30.24-135.14,77.54-182.71,142.73,5.97,4.08,11.72,8.21,17.69,12.02,4.5,2.87,6.58,6.61,6.4,12-.25,7.46,.02,14.94-.1,22.41-.11,6.74-3.8,10.99-9.48,11.26-5.65,.26-10.05-4.25-10.35-11.03-.23-5.14-.27-10.3,.02-15.43,.18-3.26-1.07-5.08-3.7-6.84-19.54-13.16-39.02-26.42-58.44-39.76-13.32-9.15-18.08-22.92-12.66-36.75,1.19-3.04,2.99-5.94,4.98-8.55C58.1,132.26,121.55,80.8,197.89,45.54,244.56,23.99,293.48,9.9,344.59,3.78c12.84-1.54,25.74-2.71,38.64-3.66,20.25-1.5,34.22,11.45,34.22,31.71,.04,155.22,0,310.44,.12,465.67,0,5.91-2.32,9.71-7.16,12.44h-5.98c-16.14-10.98-32.28-21.96-48.29-32.85-1.4,5.74-1.98,11.11-4.01,15.86-4.33,10.11-13.12,14.74-23.41,16.99h-4.98ZM397.52,67.78c0-11.52,0-22.95,0-34.37-.01-10.51-3.93-14.47-14.26-13.33-21.41,2.38-42.93,4.24-64.13,7.92-48.86,8.49-95.07,25.1-138.8,48.47-45.73,24.44-86.54,55.51-122.04,93.29-12.48,13.28-23.81,27.64-35.43,41.71-4.43,5.37-4.03,11.09,1.17,14.88,10.43,7.61,21.22,14.71,31.82,21.99C141.89,135.17,255.2,74.42,397.52,67.78Zm-53.59,50.33c.07-7.71-2.23-14.62-6.75-20.89-1.59-2.2-3.12-2.82-5.82-2.11-16.96,4.48-33.94,8.85-50.96,13.07-3.19,.79-4.21,2.49-4.51,5.5-2.06,20.23,12.21,36.78,32.99,38.13,18.32,1.19,34.57-14.44,35.06-33.7Zm-43.43,296.9c9.64-9.3,12.68-23.6,7.4-36.13-5.66-13.46-16.03-20.8-30.7-21.43-13.89-.6-26.11,7.15-31.82,20.01,18.27,12.44,36.59,24.92,55.12,37.54Zm96.75-53.62c-9.99,4.85-17.04,17.91-16.18,29.78,.84,11.64,5.83,20.8,16.18,27.67v-57.46Z"/><path d="M277.95,264.66c-.06-29.78,24.29-54.3,54.01-54.4,29.65-.1,54.31,24.4,54.4,54.05,.09,29.52-24.36,54.34-53.53,54.34-30.39,0-54.82-24.03-54.88-53.99Zm53.95,34.05c18.53,.23,34.1-15.12,34.49-33.99,.37-18.27-15.42-34.29-34.02-34.5-18.5-.21-34.14,15.24-34.47,34.05-.32,18.45,15.23,34.21,34,34.44Z"/><path d="M183.67,298.09c-32.38-1.86-54.95-26.45-53.14-57.89,1.7-29.55,27.63-51.78,58.39-50.07,27.99,1.56,51.39,27.79,49.75,55.81-1.76,30.12-26.71,53.78-55.01,52.16Zm1.2-88.12c-18.85-.12-34.23,14.97-34.47,33.81-.24,18.87,15.32,34.46,34.36,34.44,18.41-.02,33.59-15.12,34.02-33.86,.42-18.47-15.16-34.27-33.92-34.39Z"/></g></g></svg>