<?xml version="1.0" encoding="UTF-8"?><svg xmlns="http://www.w3.org/2000/svg" viewBox="0 0 475.16 487.6"><g id="a"/><g id="b"><g id="c"><path d="M294.25,487.6c-5.87-4.37-6.44-6.16-4.11-13.36,3.81-11.78,7.59-23.58,11.53-35.32,.88-2.63,.58-4.16-1.86-5.87-10.28-7.22-20.35-14.72-30.53-22.08-3.53-2.55-6.51-5.37-4.96-10.26,1.6-5.03,5.63-5.82,10.28-5.78,13.66,.1,27.33,.04,41.27,.04,4.37-13.46,8.69-26.71,12.97-39.98,1.32-4.1,3.52-7.28,8.28-7.23,4.45,.05,6.72,2.85,8.02,6.89,3.87,12.1,7.99,24.12,11.73,36.25,.96,3.1,2.21,4.23,5.57,4.16,12.24-.23,24.5-.03,36.74-.13,4.57-.04,8.83,.44,10.49,5.45,1.73,5.22-1.5,8.24-5.37,11-9.96,7.11-19.76,14.47-29.77,21.51-2.55,1.79-3,3.36-2.01,6.26,3.96,11.57,7.66,23.22,11.43,34.85,2.28,7.02,1.73,8.93-3.74,13.61h-5.73c-11.63-8.53-23.32-17-34.86-25.65-2.41-1.81-3.85-.87-5.8,.55-11.56,8.42-23.19,16.75-34.8,25.1h-4.78Zm67.81-28.98c-2.5-7.84-4.61-14.42-6.7-21-2.28-7.17-1.58-9.28,4.56-13.76,5.42-3.96,10.86-7.9,16.28-11.86l-.4-1.02c-4.56,0-9.11,0-13.67,0q-15.46,0-20.2-14.62c-1.47-4.53-3.03-9.03-4.96-14.78-2.57,7.95-4.65,14.45-6.78,20.93-2.3,7-4.33,8.44-11.82,8.47-6.74,.02-13.49,0-20.23,0,5.33,5.09,10.93,9.16,16.51,13.26,5.63,4.14,6.38,6.39,4.25,13.01-2.17,6.75-4.39,13.49-6.68,20.54,.84-.23,1.18-.24,1.4-.4,5.3-3.8,10.58-7.61,15.86-11.43,6.58-4.76,8.57-4.75,15.27,.11,5.38,3.9,10.76,7.81,17.29,12.55Z"/><path d="M229.98,209.66c-15.84-2.51-31.67-5.08-47.53-7.5-4.46-.68-8.09-2.16-8.82-7.15-.69-4.74,2.18-7.24,6.02-9.2,22.1-11.25,44.13-22.63,66.28-33.78,3.14-1.58,3.91-3.38,3.37-6.66-4.03-24.48-7.88-48.98-11.91-73.45-.71-4.33-.25-8.02,3.86-10.29,4.21-2.32,7.58-.51,10.65,2.55,17.36,17.31,34.75,34.59,52.1,51.91,1.23,1.23,2.24,2.69,3.41,4.12,2.12-.98,3.7-1.63,5.21-2.41,21.23-10.85,42.45-21.72,63.68-32.59,1.13-.58,2.26-1.18,3.41-1.71,3.48-1.62,6.85-1.62,9.7,1.22,2.84,2.83,3.01,6.2,1.27,9.67-3.91,7.82-7.87,15.61-11.83,23.41-8.12,16.02-16.24,32.03-24.94,49.18,1.8,1.42,3.97,2.81,5.76,4.58,16.73,16.59,33.36,33.27,50.11,49.84,3.3,3.27,5.7,6.68,3.31,11.33-2.29,4.45-6.31,4.53-10.74,3.82-23.87-3.81-47.77-7.37-71.61-11.33-4.54-.75-6.7,.3-8.76,4.46-10.47,21.24-21.3,42.31-32.01,63.44-.57,1.13-1.12,2.29-1.75,3.39-1.82,3.18-4.54,5.06-8.24,4.48-3.83-.59-6.21-3.03-6.85-6.96-2.53-15.54-5.04-31.08-7.57-46.61-.15-.9-.36-1.8-.72-3.58-1.8,1.71-3.13,2.92-4.41,4.2-62.8,63.04-125.6,126.09-188.4,189.14-7.5,7.53-10.25,7.54-17.74,.12-5.65-5.6-11.32-11.2-16.96-16.81-6.48-6.44-6.47-9.81,.08-16.39,62.91-63.16,125.82-126.32,188.76-189.44,1.33-1.34,3.02-2.32,4.53-3.47l-.76-1.54Zm27.17-117.42c0,1.25-.08,1.85,.01,2.42,2.95,18.36,5.87,36.73,8.89,55.08,1.23,7.49,.31,9.63-6.32,13.03-15.7,8.05-31.41,16.07-47.11,24.11-1.41,.72-2.76,1.56-4.69,2.67,1.37,.53,1.78,.78,2.22,.84,18.53,2.91,37.06,5.82,55.6,8.7,6.77,1.05,8.48,2.54,9.6,9.14,1.6,9.4,3.07,18.83,4.6,28.24,1.61,9.91,3.22,19.82,5.02,30.84,1.32-2.45,2.09-3.8,2.8-5.19,8.21-16.15,16.46-32.28,24.57-48.48,2.32-4.62,5.71-6.55,10.81-5.7,8.78,1.46,17.57,2.86,26.37,4.23,10.7,1.67,21.41,3.28,33.24,5.09-2-2.11-3.14-3.38-4.36-4.59-12.51-12.47-25.05-24.92-37.54-37.4-4.97-4.97-5.33-7.27-2.16-13.54,8.17-16.17,16.37-32.32,24.54-48.49,.58-1.14,1.01-2.36,1.89-4.44-17.96,9.18-34.92,17.87-51.9,26.54-7.25,3.71-9.02,3.45-14.68-2.18-12.52-12.46-25.03-24.94-37.55-37.4-1.09-1.09-2.27-2.09-3.85-3.54ZM90.5,393.92c46.97-46.48,93.86-92.88,140.66-139.19-3.85-3.82-7.49-7.44-10.34-10.26-46.92,46.31-93.89,92.67-140.99,139.16,4.11,3.96,7.74,7.47,10.66,10.29ZM243.12,243.04c5.84-5.9,12.06-11.24,16.94-17.61,1.7-2.22,1.49-8.32-.35-10.19-1.9-1.93-8.06-2.48-10.22-.83-6.49,4.96-11.94,11.29-17.66,16.95,3.98,4.12,7.49,7.75,11.3,11.68ZM79.25,406.73c-3.55-3.72-7.01-7.34-9.97-10.44-5.62,5.6-11.07,11.03-16.14,16.09,3.11,3.35,6.51,7.01,9.73,10.47,5.57-5.48,10.96-10.79,16.38-16.13Z"/><path d="M56.51,89.24c-8.02,5.82-15.77,11.38-23.44,17.03-3.61,2.66-7.31,4.17-11.33,1.14-3.81-2.88-3.52-6.76-2.18-10.81,2.65-7.99,5.16-16.03,7.9-23.99,.9-2.62,.59-4.25-1.85-5.93-7.07-4.87-13.93-10.06-20.92-15.06-3.38-2.42-5.61-5.41-4.33-9.7,1.34-4.48,4.96-5.9,9.32-5.9,8.6,0,17.19-.12,25.79,.06,2.89,.06,4.17-.88,5-3.67,2.3-7.77,5-15.41,7.43-23.14,1.37-4.35,3.26-8.24,8.5-8.3,5.24-.06,7.24,3.71,8.62,8.11,2.46,7.89,5.18,15.69,7.57,23.6,.78,2.59,2.01,3.46,4.71,3.4,8.43-.17,16.87-.03,25.31-.08,4.48-.03,8.45,1.04,9.92,5.73,1.47,4.69-1.17,7.76-4.86,10.35-6.65,4.65-13.07,9.63-19.76,14.22-2.67,1.83-3.38,3.48-2.23,6.66,2.86,7.92,5.24,16,7.89,24,1.37,4.14,1.29,7.92-2.6,10.66-3.72,2.61-7.18,1.45-10.54-1.01-7.83-5.74-15.7-11.41-23.92-17.36Zm23.21-37.87c-13.85,3.56-21.36-1.61-22.36-16.05-3,5.87-4.3,12.07-8.1,14.79-3.77,2.71-10.04,1.94-16.77,2.92,14.23,5.47,16.05,14.64,9.06,26.28,5.47-2.89,10.18-7.3,14.91-7.33,4.69-.03,9.41,4.35,13.65,6.56-.78-4.57-3.47-10.34-2.05-14.81,1.42-4.47,6.95-7.64,11.66-12.37Z"/><path d="M88.27,203.43c.13,21.88-17.64,39.76-39.6,39.86-21.82,.1-39.85-17.77-39.97-39.61-.12-21.72,17.89-39.83,39.7-39.91,21.84-.08,39.74,17.72,39.87,39.66Zm-63.53,.11c-.01,13.23,10.75,24.02,23.87,23.93,13.1-.1,24.04-11.15,23.86-24.1-.19-13.01-10.76-23.49-23.79-23.58-13.28-.1-23.93,10.47-23.94,23.76Z"/><path d="M415.38,331.05c-17.52,.03-32-14.43-31.91-31.87,.09-17.48,14.73-31.99,32.07-31.76,17.45,.22,31.52,14.33,31.6,31.68,.08,17.62-14.14,31.93-31.76,31.95Zm15.78-31.8c0-8.73-6.89-15.77-15.58-15.93-8.71-.16-16.16,7.19-16.17,15.93,0,8.83,7.27,15.95,16.17,15.82,8.78-.13,15.59-7.04,15.58-15.83Z"/><path d="M428.17,56.61c-2.91-3-6.32-6.5-9.28-9.55,15.65-15.66,31.41-31.45,47.02-47.07,2.77,2.87,6.24,6.46,9.25,9.57-15.15,15.17-30.9,30.93-46.99,47.04Z"/><path d="M319.4,51.87h-15.37V4.55h15.37V51.87Z"/><path d="M470.84,156.14v15.45h-47.33v-15.45h47.33Z"/></g></g></svg>